<?xml version="1.0" encoding="utf-8"?>
<!-- Generator: Adobe Illustrator 16.0.4, SVG Export Plug-In . SVG Version: 6.00 Build 0)  -->
<!DOCTYPE svg PUBLIC "-//W3C//DTD SVG 1.0//EN" "http://www.w3.org/TR/2001/REC-SVG-20010904/DTD/svg10.dtd">
<svg version="1.0" id="Layer_1" xmlns="http://www.w3.org/2000/svg" xmlns:xlink="http://www.w3.org/1999/xlink" x="0px" y="0px"
	 width="85.039px" height="42.52px" viewBox="0 0 85.039 42.52" enable-background="new 0 0 85.039 42.52" xml:space="preserve">
<g>
	<g>
		<g>
			<g>
				<polygon fill="#FFFFFF" points="12.092,8.935 19.179,8.935 26.266,25.641 33.353,8.935 40.439,8.935 29.809,33.993 
					22.723,33.993 				"/>
				<path fill="#1E1E1C" d="M32.822,15.07l0.3-0.706l1.034,0.438l-0.661-1.315l0.355-0.837l0.686,1.43l1.875-0.381l-0.36,0.848
					l-1.219,0.239l0.178,0.381l0.659,0.279l-0.299,0.706L32.822,15.07z"/>
				<path fill="#1E1E1C" d="M28.063,26.28l0.3-0.706l1.929,0.819l0.524-1.234l0.619,0.263l-0.824,1.94L28.063,26.28z"/>
				<path fill="#1E1E1C" d="M29.001,24.071l0.87-2.049l0.6,0.254l-0.573,1.352l0.387,0.163l0.519-1.223l0.557,0.235l-0.519,1.224
					l0.404,0.172l0.581-1.368l0.6,0.254l-0.877,2.068L29.001,24.071z"/>
				<path fill="#1E1E1C" d="M30.061,21.575l0.511-1.204c0.166-0.39,0.382-0.616,0.629-0.713c0.208-0.087,0.438-0.08,0.689,0.026
					l0.007,0.004c0.39,0.164,0.56,0.482,0.56,0.855l1.146-0.23l-0.346,0.814l-0.99,0.187l-0.003,0.007l-0.128,0.303l0.771,0.327
					l-0.3,0.706L30.061,21.575z M31.781,20.923c0.102-0.24,0.044-0.428-0.142-0.507l-0.007-0.003
					c-0.2-0.085-0.364,0.018-0.464,0.254l-0.196,0.463l0.611,0.26L31.781,20.923z"/>
				<path fill="#1E1E1C" d="M31.191,18.913l0.301-0.71l2.548,1.081l-0.302,0.711L31.191,18.913z"/>
				<path fill="#1E1E1C" d="M32.939,18.358l-0.008-0.004c-0.742-0.314-1.082-1.133-0.754-1.904c0.221-0.521,0.581-0.764,0.99-0.856
					l0.186,0.706c-0.244,0.068-0.432,0.187-0.536,0.43c-0.151,0.357,0.044,0.736,0.416,0.895l0.007,0.003
					c0.382,0.163,0.788,0.038,0.939-0.319c0.113-0.266,0.055-0.475-0.065-0.706l0.604-0.37c0.229,0.381,0.336,0.808,0.097,1.372
					C34.505,18.331,33.7,18.681,32.939,18.358z"/>
				<polygon fill="#1E1E1C" points="27.955,26.496 27.62,27.288 28.815,28.522 27.096,28.521 26.76,29.313 29.766,29.315 
					29.905,28.985 30.045,28.657 				"/>
				<rect x="5.974" y="3.398" fill="none" width="74.1" height="36.13"/>
			</g>
		</g>
		<g>
			<path fill="#FFFFFF" d="M40.441,16.171h2.186c0.535,0,0.913,0.135,1.163,0.385c0.17,0.17,0.273,0.396,0.273,0.688v0.012
				c0,0.494-0.279,0.787-0.658,0.95c0.518,0.171,0.848,0.464,0.848,1.042v0.012c0,0.732-0.597,1.176-1.614,1.176h-2.197V16.171z
				 M42.334,17.871c0.359,0,0.56-0.122,0.56-0.372v-0.012c0-0.232-0.183-0.365-0.536-0.365H41.59v0.749H42.334z M42.504,19.483
				c0.36,0,0.566-0.139,0.566-0.389v-0.012c0-0.23-0.182-0.384-0.579-0.384H41.59v0.784H42.504z"/>
			<path fill="#FFFFFF" d="M45.105,18.565v-2.395h1.199v2.369c0,0.615,0.311,0.908,0.786,0.908c0.475,0,0.785-0.281,0.785-0.877
				v-2.4h1.199v2.363c0,1.377-0.785,1.979-1.997,1.979S45.105,19.899,45.105,18.565z"/>
			<path fill="#FFFFFF" d="M49.817,19.802l0.657-0.785c0.42,0.334,0.889,0.511,1.383,0.511c0.316,0,0.486-0.11,0.486-0.292v-0.014
				c0-0.175-0.14-0.271-0.718-0.406c-0.907-0.207-1.607-0.465-1.607-1.34v-0.013c0-0.792,0.627-1.364,1.65-1.364
				c0.724,0,1.29,0.194,1.753,0.566l-0.591,0.834c-0.39-0.274-0.815-0.42-1.193-0.42c-0.286,0-0.427,0.121-0.427,0.273v0.013
				c0,0.194,0.146,0.28,0.737,0.415c0.98,0.213,1.59,0.529,1.59,1.326v0.012c0,0.873-0.688,1.39-1.724,1.39
				C51.059,20.508,50.34,20.27,49.817,19.802z"/>
			<path fill="#FFFFFF" d="M54.5,16.171h1.187v4.264H54.5V16.171z"/>
			<path fill="#FFFFFF" d="M56.831,16.171h1.103l1.753,2.254v-2.254h1.17v4.264H59.82L58,18.097v2.338h-1.169V16.171z"/>
			<path fill="#FFFFFF" d="M61.977,16.171h3.428v1.006h-2.259v0.646h2.045v0.932h-2.045v0.675h2.289v1.005h-3.458V16.171z"/>
			<path fill="#FFFFFF" d="M66.081,19.802l0.658-0.785c0.42,0.334,0.887,0.511,1.379,0.511c0.317,0,0.488-0.11,0.488-0.292v-0.014
				c0-0.175-0.14-0.271-0.718-0.406c-0.905-0.207-1.606-0.465-1.606-1.34v-0.013c0-0.792,0.628-1.364,1.649-1.364
				c0.725,0,1.29,0.194,1.753,0.566l-0.591,0.834c-0.39-0.274-0.816-0.42-1.192-0.42c-0.287,0-0.428,0.121-0.428,0.273v0.013
				c0,0.194,0.146,0.28,0.736,0.415c0.98,0.213,1.591,0.529,1.591,1.326v0.012c0,0.873-0.689,1.39-1.725,1.39
				C67.323,20.508,66.604,20.27,66.081,19.802z"/>
			<path fill="#FFFFFF" d="M70.354,19.802l0.657-0.785c0.421,0.334,0.891,0.511,1.382,0.511c0.318,0,0.488-0.11,0.488-0.292v-0.014
				c0-0.175-0.14-0.271-0.72-0.406c-0.907-0.207-1.606-0.465-1.606-1.34v-0.013c0-0.792,0.626-1.364,1.649-1.364
				c0.725,0,1.292,0.194,1.754,0.566l-0.59,0.834c-0.391-0.274-0.816-0.42-1.194-0.42c-0.285,0-0.425,0.121-0.425,0.273v0.013
				c0,0.194,0.146,0.28,0.736,0.415c0.98,0.213,1.588,0.529,1.588,1.326v0.012c0,0.873-0.687,1.39-1.723,1.39
				C71.596,20.508,70.878,20.27,70.354,19.802z"/>
			<path fill="#FFFFFF" d="M40.119,25.156l0.657-0.785c0.42,0.335,0.889,0.513,1.382,0.513c0.317,0,0.487-0.11,0.487-0.293v-0.013
				c0-0.177-0.14-0.274-0.718-0.409c-0.907-0.206-1.608-0.461-1.608-1.338v-0.013c0-0.79,0.627-1.362,1.651-1.362
				c0.724,0,1.29,0.195,1.752,0.566l-0.59,0.833c-0.389-0.274-0.815-0.419-1.192-0.419c-0.287,0-0.426,0.12-0.426,0.272v0.013
				c0,0.195,0.146,0.279,0.737,0.412c0.979,0.214,1.588,0.531,1.588,1.328v0.012c0,0.871-0.688,1.391-1.722,1.391
				C41.361,25.864,40.642,25.626,40.119,25.156z"/>
			<path fill="#FFFFFF" d="M44.63,23.671v-0.012c0-1.242,0.956-2.216,2.248-2.216c0.87,0,1.43,0.366,1.808,0.89l-0.889,0.686
				c-0.243-0.304-0.523-0.499-0.931-0.499c-0.597,0-1.018,0.505-1.018,1.127v0.013c0,0.639,0.42,1.139,1.018,1.139
				c0.444,0,0.706-0.207,0.961-0.519l0.889,0.635c-0.401,0.554-0.943,0.962-1.887,0.962C45.61,25.876,44.63,24.942,44.63,23.671z"/>
			<path fill="#FFFFFF" d="M49.586,21.528h1.182v1.594h1.517v-1.594h1.18v4.263h-1.18v-1.622h-1.517v1.622h-1.182V21.528z"/>
			<path fill="#FFFFFF" d="M54.439,23.671v-0.012c0-1.223,0.986-2.216,2.301-2.216c1.316,0,2.29,0.98,2.29,2.203v0.013
				c0,1.225-0.986,2.217-2.303,2.217C55.414,25.876,54.439,24.896,54.439,23.671z M57.824,23.671v-0.012
				c0-0.616-0.443-1.151-1.097-1.151c-0.645,0-1.077,0.522-1.077,1.139v0.013c0,0.614,0.444,1.15,1.09,1.15
				C57.393,24.81,57.824,24.285,57.824,23.671z"/>
			<path fill="#FFFFFF" d="M59.864,23.671v-0.012c0-1.223,0.986-2.216,2.303-2.216c1.314,0,2.289,0.98,2.289,2.203v0.013
				c0,1.225-0.986,2.217-2.301,2.217C60.838,25.876,59.864,24.896,59.864,23.671z M63.251,23.671v-0.012
				c0-0.616-0.445-1.151-1.097-1.151c-0.647,0-1.078,0.522-1.078,1.139v0.013c0,0.614,0.443,1.15,1.09,1.15
				C62.818,24.81,63.251,24.285,63.251,23.671z"/>
			<path fill="#FFFFFF" d="M65.434,21.528h1.182v3.227h2.064v1.036h-3.246V21.528z"/>
		</g>
	</g>
</g>
</svg>
